<?xml version="1.0" encoding="UTF-8"?>
<svg version="1.1" xmlns="http://www.w3.org/2000/svg" width="83" height="93">
<path d="M0 0 C3.48313228 1.67936735 5.32458734 2.92547986 7.375 6.1875 C8.25367705 10.1415467 8.15813466 13.96756609 8 18 C9.32 18 10.64 18 12 18 C12.08120751 20.89640118 12.14059421 23.79050912 12.1875 26.6875 C12.21263672 27.50412109 12.23777344 28.32074219 12.26367188 29.16210938 C12.32147401 33.92115215 12.22993857 37.22356423 9 41 C4.75142153 44.52508865 0.7710876 44.456934 -4.5 44.375 C-5.24636719 44.38660156 -5.99273437 44.39820313 -6.76171875 44.41015625 C-12.38476957 44.38029934 -15.51839052 43.17477274 -19.80078125 39.421875 C-21.74143821 35.50263292 -21.31142191 31.5523144 -21.1875 27.25 C-21.17396484 26.36183594 -21.16042969 25.47367188 -21.14648438 24.55859375 C-21.11121309 22.37177422 -21.06192752 20.18620034 -21 18 C-19.68 18 -18.36 18 -17 18 C-17.04640625 17.34773438 -17.0928125 16.69546875 -17.140625 16.0234375 C-17.38506001 10.10461838 -17.06978448 6.65118227 -13 2 C-8.73944999 -0.84036668 -5.00091856 -0.62997574 0 0 Z M-12 8 C-13.59628479 10.81989159 -13.59628479 10.81989159 -13 18 C-7.39 18 -1.78 18 4 18 C4.21544885 11.10893449 4.21544885 11.10893449 1 6 C-4.4435903 2.3709398 -7.41389007 3.66867395 -12 8 Z " fill="#33245B" transform="translate(71,49)"/>
<path d="M0 0 C7.24963587 -0.09035546 14.49896429 -0.16374631 21.74904346 -0.20724869 C25.11554183 -0.22812738 28.48163516 -0.25644839 31.84790039 -0.30175781 C35.71772055 -0.35015726 39.58696418 -0.37294261 43.45703125 -0.390625 C44.66647903 -0.41127014 45.87592682 -0.43191528 47.12202454 -0.45318604 C48.24296005 -0.45348816 49.36389557 -0.45379028 50.51879883 -0.45410156 C52.00105705 -0.46742523 52.00105705 -0.46742523 53.51325989 -0.48101807 C56 -0 56 -0 57.82128906 1.77050781 C59.07936225 4.15011103 59.36587738 5.46091604 59.34057617 8.12597656 C59.34034958 8.92650452 59.34012299 9.72703247 59.33988953 10.55181885 C59.32440567 11.40612488 59.30892181 12.26043091 59.29296875 13.140625 C59.28872391 14.02280701 59.28447906 14.90498901 59.28010559 15.81390381 C59.26333838 18.62624883 59.22568998 21.43787226 59.1875 24.25 C59.17245062 26.1588438 59.15876266 28.06769886 59.14648438 29.9765625 C59.11344127 34.65131889 59.06167255 39.32553718 59 44 C57.35 44 55.7 44 54 44 C53.67 31.13 53.34 18.26 53 5 C28.745 4.505 28.745 4.505 4 4 C4 7.96 4 11.92 4 16 C2 18 2 18 -0.8203125 18.1953125 C-1.91085937 18.17210938 -3.00140625 18.14890625 -4.125 18.125 C-5.22070312 18.10695313 -6.31640625 18.08890625 -7.4453125 18.0703125 C-8.28835937 18.04710938 -9.13140625 18.02390625 -10 18 C-9.89265278 26.58814467 -9.78005133 35.17619721 -9.66066074 43.76418209 C-9.60539527 47.75153216 -9.55196963 51.73888952 -9.50268555 55.72631836 C-9.45509524 59.57131601 -9.40275464 63.41622182 -9.34705925 67.26111031 C-9.32661143 68.73116342 -9.30790244 70.20124174 -9.29092598 71.67133904 C-9.26693536 73.72361276 -9.2368741 75.77571147 -9.20532227 77.82788086 C-9.18977798 78.99814316 -9.1742337 80.16840546 -9.15821838 81.37413025 C-9.29584674 83.9252526 -9.29584674 83.9252526 -8 85 C-5.04470496 85.16029688 -2.11017543 85.25957328 0.84765625 85.31640625 C2.17729652 85.3475779 2.17729652 85.3475779 3.53379822 85.37937927 C6.376617 85.444974 9.21953117 85.50380552 12.0625 85.5625 C13.98503606 85.6056758 15.90756234 85.64928978 17.83007812 85.69335938 C22.55328668 85.80066543 27.27659153 85.90190451 32 86 C32 87.32 32 88.64 32 90 C25.93109825 90.07408977 19.86245903 90.12857359 13.79321289 90.16479492 C11.72806209 90.17989271 9.6629434 90.20037274 7.59790039 90.22631836 C4.63159261 90.26265795 1.66570829 90.2797163 -1.30078125 90.29296875 C-2.68841423 90.31619453 -2.68841423 90.31619453 -4.1040802 90.33988953 C-4.96474594 90.34011612 -5.82541168 90.34034271 -6.7121582 90.34057617 C-7.46938675 90.34723801 -8.2266153 90.35389984 -9.00679016 90.36076355 C-11 90 -11 90 -12.7467041 88.91882324 C-14.67194413 85.97123894 -14.35860421 83.44968115 -14.34057617 79.95825195 C-14.34101425 79.24580322 -14.34145233 78.53335449 -14.34190369 77.79931641 C-14.3398143 75.44535885 -14.31647715 73.09211431 -14.29296875 70.73828125 C-14.2873733 69.10589487 -14.28310296 67.47350345 -14.28010559 65.84111023 C-14.2686527 61.54525842 -14.23918187 57.24971104 -14.20599365 52.95397949 C-14.17530224 48.57027301 -14.16160225 44.18651733 -14.14648438 39.80273438 C-14.11431245 31.20168323 -14.06311093 22.60087949 -14 14 C-7.565 13.505 -7.565 13.505 -1 13 C-0.67 8.71 -0.34 4.42 0 0 Z " fill="#30225C" transform="translate(14,0)"/>
<path d="M0 0 C8.25 0 16.5 0 25 0 C25.61298725 12.13714748 25.61298725 12.13714748 22.94921875 15.88671875 C19.23438027 18.54860964 17.0385344 18.67038534 12.5 18.625 C10.56640625 18.64433594 10.56640625 18.64433594 8.59375 18.6640625 C4.11132922 17.83578909 2.62705938 16.69789882 0 13 C-0.64979162 8.56582198 -0.227706 4.50857874 0 0 Z " fill="#F9B619" transform="translate(54,71)"/>
<path d="M0 0 C15.18 0 30.36 0 46 0 C46 1.32 46 2.64 46 4 C30.82 4 15.64 4 0 4 C0 2.68 0 1.36 0 0 Z " fill="#30225C" transform="translate(14,40)"/>
<path d="M0 0 C15.18 0 30.36 0 46 0 C46 1.32 46 2.64 46 4 C30.82 4 15.64 4 0 4 C0 2.68 0 1.36 0 0 Z " fill="#30225C" transform="translate(14,26)"/>
<path d="M0 0 C10.23 0 20.46 0 31 0 C31 1.32 31 2.64 31 4 C20.77 4 10.54 4 0 4 C0 2.68 0 1.36 0 0 Z " fill="#30225C" transform="translate(14,53)"/>
<path d="M0 0 C8.25 0 16.5 0 25 0 C25 1.32 25 2.64 25 4 C16.75 4 8.5 4 0 4 C0 2.68 0 1.36 0 0 Z " fill="#30225C" transform="translate(14,66)"/>
<path d="M0 0 C1.32 0 2.64 0 4 0 C4 2.97 4 5.94 4 9 C2.68 9 1.36 9 0 9 C0 6.03 0 3.06 0 0 Z " fill="#4B365A" transform="translate(64,75)"/>
</svg>
